<!-- Generated by IcoMoon.io -->
<svg version="1.1" xmlns="http://www.w3.org/2000/svg" width="17" height="20" viewBox="0 0 17 20">
<title>arrow-circle-right</title>
<path d="M14.342 10c0-0.19-0.067-0.368-0.201-0.502l-5.056-5.056c-0.134-0.134-0.313-0.201-0.502-0.201s-0.368 0.067-0.502 0.201l-1.016 1.016c-0.134 0.134-0.201 0.313-0.201 0.502s0.067 0.368 0.201 0.502l2.109 2.109h-5.603c-0.391 0-0.714 0.324-0.714 0.714v1.429c0 0.391 0.324 0.714 0.714 0.714h5.603l-2.109 2.109c-0.134 0.134-0.212 0.313-0.212 0.502s0.078 0.368 0.212 0.502l1.016 1.016c0.134 0.134 0.313 0.201 0.502 0.201s0.368-0.067 0.502-0.201l5.056-5.056c0.134-0.134 0.201-0.313 0.201-0.502zM17.143 10c0 4.732-3.839 8.571-8.571 8.571s-8.571-3.839-8.571-8.571 3.839-8.571 8.571-8.571 8.571 3.839 8.571 8.571z"></path>
</svg>
