<!-- Generated by IcoMoon.io -->
<svg version="1.1" xmlns="http://www.w3.org/2000/svg" width="26" height="20" viewBox="0 0 26 20">
<title>bicycle</title>
<path d="M8.504 12.857h-3.504c-0.592 0-0.926-0.67-0.569-1.138l2.098-2.801c-0.469-0.223-0.982-0.346-1.529-0.346-1.964 0-3.571 1.607-3.571 3.571s1.607 3.571 3.571 3.571c1.73 0 3.17-1.228 3.504-2.857zM6.429 11.429h2.076c-0.134-0.625-0.424-1.194-0.837-1.652zM11.786 11.429l3.214-4.286h-5.357l-1.105 1.473c0.748 0.737 1.25 1.719 1.406 2.813h1.842zM24.286 12.143c0-1.964-1.607-3.571-3.571-3.571-0.48 0-0.926 0.1-1.35 0.268l1.942 2.902c0.223 0.335 0.134 0.781-0.19 0.993-0.123 0.089-0.268 0.123-0.402 0.123-0.234 0-0.458-0.112-0.592-0.324l-1.942-2.902c-0.636 0.647-1.038 1.529-1.038 2.511 0 1.964 1.607 3.571 3.571 3.571s3.571-1.607 3.571-3.571zM25.714 12.143c0 2.757-2.243 5-5 5s-5-2.243-5-5c0-1.473 0.647-2.801 1.663-3.717l-0.725-1.094-3.94 5.234c-0.134 0.19-0.346 0.29-0.569 0.29h-2.199c-0.346 2.422-2.422 4.286-4.944 4.286-2.757 0-5-2.243-5-5s2.243-5 5-5c0.871 0 1.685 0.223 2.4 0.614l1.529-2.042h-2.5c-0.391 0-0.714-0.324-0.714-0.714s0.324-0.714 0.714-0.714h4.286v1.429h4.855l-0.949-1.429h-2.478c-0.391 0-0.714-0.324-0.714-0.714s0.324-0.714 0.714-0.714h2.857c0.234 0 0.458 0.123 0.592 0.313l2.98 4.464c0.647-0.313 1.373-0.491 2.143-0.491 2.757 0 5 2.243 5 5z"></path>
</svg>
