<!-- Generated by IcoMoon.io -->
<svg version="1.1" xmlns="http://www.w3.org/2000/svg" width="32" height="32" viewBox="0 0 32 32">
<title>bitrise</title>
<path fill="#683d87" d="M16 23.867c2 0 3.6-1.6 3.6-3.6h-7.2c0 2 1.6 3.6 3.6 3.6zM8 16c-1.2 0-2.133 0.933-2.133 2.133h4.4c0-1.2-1.067-2.133-2.267-2.133zM16 5.467c0.8 0 1.333-0.667 1.333-1.333 0-0.8-0.667-1.333-1.333-1.333-0.8 0-1.333 0.667-1.333 1.333 0 0.8 0.533 1.333 1.333 1.333zM31.333 17.867c-0.4-2.533-0.933-5.067-1.333-6.667-0.533-2-2.133-3.467-4.267-3.6-2-0.133-5.333-0.267-9.867-0.267-4.4 0-7.733 0.133-9.867 0.267-1.867 0.133-3.6 1.6-4 3.6-0.4 1.733-0.933 4.267-1.333 6.667-0.267 1.733-0.4 3.733-0.667 6-0.133 1.2 0.267 2.533 1.2 3.467 0.8 0.933 2 1.467 3.2 1.6 2.8 0.133 7.067 0.267 11.6 0.267s8.8-0.133 11.6-0.267c1.2 0 2.4-0.667 3.2-1.6s1.2-2.133 1.2-3.467c-0.133-2.267-0.4-4.267-0.667-6zM29.2 25.733c-0.4 0.533-1.067 0.8-1.733 0.8-2.8 0.133-6.933 0.267-11.467 0.267s-8.667-0.133-11.467-0.267c-0.667 0-1.333-0.267-1.733-0.8s-0.667-1.067-0.667-1.733c0.133-2.133 0.267-4.133 0.533-5.733 0.4-2.4 0.933-4.933 1.333-6.533 0.267-1.067 1.2-1.867 2.267-1.867 2-0.267 5.333-0.4 9.733-0.4s7.733 0.133 9.733 0.267c1.067 0 2 0.8 2.267 1.867 0.4 1.6 0.933 4.133 1.333 6.533 0.267 1.6 0.4 3.6 0.533 5.733 0 0.8-0.267 1.333-0.667 1.867zM24 16c-1.2 0-2.133 0.933-2.133 2.133h4.4c-0.133-1.2-1.067-2.133-2.267-2.133z"></path>
</svg>
