<!-- Generated by IcoMoon.io -->
<svg version="1.1" xmlns="http://www.w3.org/2000/svg" width="32" height="32" viewBox="0 0 32 32">
<title>laughing-face</title>
<path d="M16.5 29v0c-6.904 0-12.5-5.596-12.5-12.5s5.596-12.5 12.5-12.5c6.904 0 12.5 5.596 12.5 12.5s-5.596 12.5-12.5 12.5zM16.5 28c6.351 0 11.5-5.149 11.5-11.5s-5.149-11.5-11.5-11.5c-6.351 0-11.5 5.149-11.5 11.5s5.149 11.5 11.5 11.5v0zM18.672 13.793l2.828-2.828 2.828 2.828-0.707 0.707-2.121-2.121-2.121 2.121-0.707-0.707zM8.672 13.793l2.828-2.828 2.828 2.828-0.707 0.707-2.121-2.121-2.121 2.121-0.707-0.707zM9 19h15c0 0-1 6-7.5 6s-7.5-6-7.5-6zM10.345 20c0 0 1.287 4.013 6.18 4.013s6.118-4.013 6.118-4.013h-12.298z"></path>
</svg>
