<!-- Generated by IcoMoon.io -->
<svg version="1.1" xmlns="http://www.w3.org/2000/svg" width="32" height="32" viewBox="0 0 32 32">
<title>probot</title>
<path fill="#00b0d8" d="M16 0.053c-1.283 0.001-2.323 1.041-2.323 2.324 0 1.027 0.667 1.899 1.591 2.206l0.016 0.005-0.841 3.439h-11.168c-1.809 0-3.275 1.466-3.275 3.275v0 17.372c0 1.809 1.466 3.275 3.275 3.275v0h25.451c1.808 0 3.275-1.467 3.275-3.275v-17.372c0-1.808-1.467-3.275-3.275-3.275h-11.204l-0.821-3.433c0.949-0.307 1.624-1.183 1.624-2.216 0-1.283-1.040-2.324-2.324-2.324v0zM5.244 10.508h21.515c1.468 0 2.659 1.191 2.659 2.659v13.489c0 1.468-1.19 2.659-2.659 2.659v0h-21.515c-1.468 0-2.659-1.19-2.659-2.659v0-13.489c0-1.468 1.191-2.659 2.659-2.659zM9.583 13.591c-3.369 0-6.1 2.731-6.1 6.1s2.731 6.1 6.1 6.1v0c3.369 0 6.1-2.731 6.1-6.1s-2.731-6.1-6.1-6.1v0zM22.573 13.591c-3.369 0-6.1 2.731-6.1 6.1s2.731 6.1 6.1 6.1v0c3.369 0 6.1-2.731 6.1-6.1s-2.731-6.1-6.1-6.1v0zM9.583 15.017c0.023-0 0.051-0.001 0.079-0.001 2.582 0 4.675 2.093 4.675 4.675s-2.093 4.675-4.675 4.675c-0.028 0-0.055-0-0.083-0.001l0.004 0c-2.548-0.044-4.596-2.12-4.596-4.674s2.048-4.63 4.592-4.674l0.004-0zM22.573 15.017c0.023-0 0.051-0.001 0.079-0.001 2.582 0 4.675 2.093 4.675 4.675s-2.093 4.675-4.675 4.675c-0.028 0-0.055-0-0.083-0.001l0.004 0c-2.548-0.044-4.596-2.12-4.596-4.674s2.048-4.63 4.592-4.674l0.004-0zM9.583 17.235c-1.357 0-2.457 1.1-2.457 2.457s1.1 2.457 2.457 2.457v0c1.357 0 2.457-1.1 2.457-2.457s-1.1-2.457-2.457-2.457v0zM22.573 17.235c-1.357 0-2.457 1.1-2.457 2.457s1.1 2.457 2.457 2.457v0c1.357 0 2.457-1.1 2.457-2.457s-1.1-2.457-2.457-2.457v0zM13.337 25.901v2.879h0.941v-2.879zM14.773 25.901v2.879h0.94v-2.879zM16.208 25.901v2.879h0.941v-2.879zM17.644 25.901v2.879h0.941v-2.879zM19.080 25.941v2.8c0.638-0.156 1.104-0.723 1.105-1.399v-0.001c0-0.68-0.472-1.249-1.105-1.4zM12.843 25.979c-0.571 0.199-0.974 0.733-0.975 1.361v0.001c0 0.632 0.408 1.168 0.975 1.361z"></path>
</svg>
