<!-- Generated by IcoMoon.io -->
<svg version="1.1" xmlns="http://www.w3.org/2000/svg" width="32" height="32" viewBox="0 0 32 32">
<title>sports-shoe</title>
<path d="M12.4 12.645l0.501 0.769c-0.141 0.11-0.28 0.218-0.417 0.323l-0.545-0.838-0.838 0.545 0.574 0.882c-0.152 0.102-0.3 0.195-0.447 0.278l-0.589-0.905-0.838 0.545 0.475 0.731c-0.093 0.016-0.185 0.024-0.275 0.024-2 0-2.995 0-2.995 0-1.66 0-3.005 1.35-3.005 3.009 0 2.204 1.798 3.991 4.003 3.991h18.994c1.107 0 2.014-0.9 2.009-1.992 0 0 0.274-9.008-2.005-9.008s-2 1.971-5 1.971c-3 0-2.5-1.971-4-1.971-1.129 0-2.154 0.416-3.091 0.98l-0.49-0.753-0.838 0.545 0.493 0.757c-0.127 0.090-0.253 0.182-0.377 0.275l-0.458-0.705-0.838 0.545zM27.862 15.6c0.076 0.793 0.12 1.611 0.141 2.4h-6.002c-1.917 0-2.5 0-4.52 0.264-0.024-0.149-0.073-0.316-0.158-0.487-0.238-0.476-0.688-0.776-1.322-0.776h-5.5c-0.679 0-1.072-0.262-1.303-0.724-0.046-0.092-0.083-0.186-0.111-0.276 0.247 0 0.546 0 0.914 0 0.286 0 0.567-0.046 0.853-0.136l0.44 0.677 0.838-0.545-0.358-0.551c0.123-0.072 0.249-0.15 0.378-0.234 0.023-0.015 0.045-0.030 0.068-0.045l0.375 0.576 0.838-0.545-0.402-0.618c0.022-0.017 0.044-0.033 0.066-0.050 0.047-0.036 0.189-0.146 0.352-0.272l0.446 0.686 0.838-0.545-0.489-0.751c0.129-0.096 0.254-0.188 0.377-0.275l0.454 0.698 0.838-0.545-0.458-0.704c0.106-0.064 0.21-0.123 0.312-0.179l0.024 0.048c0 0 0.61 0.919 1.106 1.415 1.183 1.183 2.712 1.896 4.604 1.896 1.841 0 3.516-0.493 4.993-1.313 0.385-0.214 1.014-0.646 1.129-0.737 0.107 0.487 0.181 1.041 0.24 1.649zM28.016 18.964c0.001 0.27-0.001 0.534-0.006 0.789-0.002 0.11-0.004 0.186-0.005 0.224 0.002 0.57-0.454 1.022-1.009 1.022h-18.994c-0.889 0-1.689-0.387-2.239-1h7.236c1.409 0 2.391-0.326 4.303-0.656 2.197-0.379 3.562-0.379 4.697-0.379h6.016zM5.169 19c-0.11-0.31-0.169-0.644-0.169-0.991 0-1.109 0.899-2.009 2.005-2.009 0.035 0 0.035 0 0.212 0 0.361 0 0.569 0 0.836 0 0.092 0.343 0.204 0.632 0.25 0.724 0.394 0.789 1.126 1.276 2.197 1.276h5.5c0.241 0 0.353 0.075 0.428 0.224 0.053 0.106 0.072 0.222 0.072 0.276-1.321 0.346-2.326 0.5-3.5 0.5h-7.831zM18 12c0.128 0 0.157 0.018 0.344 0.239-0.013-0.016 0.251 0.305 0.345 0.411 0.778 0.876 1.739 1.322 3.31 1.322 1.522 0 2.406-0.379 3.411-1.218 0.045-0.038 0.114-0.095 0.217-0.183 0.534-0.448 0.796-0.57 1.371-0.57-0.018 0 0.137 0.181 0.331 0.737 0.111 0.317 0.082 0.218 0.082 0.218s-0.3 0.139-0.319 0.153c-0.318 0.24-0.682 0.479-1.087 0.705-1.336 0.742-2.848 1.187-4.507 1.187-1.609 0-2.892-0.599-3.896-1.604-0.319-0.319-0.811-1.001-0.811-1.001l-0.121-0.164c0.45-0.157 0.883-0.231 1.329-0.231z"></path>
</svg>
