<!-- Generated by IcoMoon.io -->
<svg version="1.1" xmlns="http://www.w3.org/2000/svg" width="20" height="20" viewBox="0 0 20 20">
<title>store-front</title>
<path d="M18 9.87v10.13h-16v-10.13c0.301 0.076 0.646 0.12 1.001 0.12 0.732 0 1.42-0.185 2.022-0.511l-0.022 0.011v4.51h10v-4.5c0.576 0.31 1.261 0.492 1.988 0.492 0.359 0 0.708-0.045 1.042-0.128l-0.029 0.006zM3 0h4l-0.67 6.030c-0.231 1.663-1.627 2.935-3.326 2.97l-0.004 0c-1.66 0-2.58-1.27-2.050-2.85l2.050-6.15zM8 0h4l0.7 6.3c0.17 1.5-0.91 2.7-2.42 2.7h-0.56c-0.018 0.001-0.040 0.001-0.062 0.001-1.314 0-2.38-1.066-2.38-2.38 0-0.113 0.008-0.224 0.023-0.333l-0.001 0.013 0.7-6.3zM13 0h4l2.050 6.15c0.53 1.58-0.4 2.85-2.050 2.85-1.705-0.031-3.103-1.305-3.328-2.952l-0.002-0.018-0.67-6.030z"></path>
</svg>
