<!-- Generated by IcoMoon.io -->
<svg version="1.1" xmlns="http://www.w3.org/2000/svg" width="20" height="20" viewBox="0 0 20 20">
<title>travel-walk</title>
<path d="M11 7l1.44 2.16c0.31 0.47 1.010 0.84 1.57 0.84h2.99v-2h-3l-1.44-2.16c-0.391-0.546-0.854-1.009-1.382-1.388l-0.018-0.012-1.32-0.88c-0.253-0.154-0.558-0.245-0.885-0.245-0.298 0-0.579 0.076-0.824 0.21l0.009-0.004-4.14 2.48v5h2v-4l2-1-3 14h2l2.35-7.65 1.65 1.65v6h2v-8l-2.7-2.7 0.7-2.3zM12 4c1.105 0 2-0.895 2-2s-0.895-2-2-2v0c-1.105 0-2 0.895-2 2s0.895 2 2 2v0z"></path>
</svg>
