<svg aria-hidden="true" style="position: absolute; width: 0; height: 0; overflow: hidden;" version="1.1" xmlns="http://www.w3.org/2000/svg" xmlns:xlink="http://www.w3.org/1999/xlink">
<defs>
<symbol id="icon-cancel" viewBox="0 0 32 32">
<path d="M19.587 16.001l6.096 6.096c0.396 0.396 0.396 1.039 0 1.435l-2.151 2.151c-0.396 0.396-1.038 0.396-1.435 0l-6.097-6.096-6.097 6.096c-0.396 0.396-1.038 0.396-1.434 0l-2.152-2.151c-0.396-0.396-0.396-1.038 0-1.435l6.097-6.096-6.097-6.097c-0.396-0.396-0.396-1.039 0-1.435l2.153-2.151c0.396-0.396 1.038-0.396 1.434 0l6.096 6.097 6.097-6.097c0.396-0.396 1.038-0.396 1.435 0l2.151 2.152c0.396 0.396 0.396 1.038 0 1.435l-6.096 6.096z"></path>
</symbol>
<symbol id="icon-menu" viewBox="0 0 24 24">
<path d="M3 13h18c0.552 0 1-0.448 1-1s-0.448-1-1-1h-18c-0.552 0-1 0.448-1 1s0.448 1 1 1zM3 7h18c0.552 0 1-0.448 1-1s-0.448-1-1-1h-18c-0.552 0-1 0.448-1 1s0.448 1 1 1zM3 19h18c0.552 0 1-0.448 1-1s-0.448-1-1-1h-18c-0.552 0-1 0.448-1 1s0.448 1 1 1z"></path>
</symbol>
<symbol id="icon-th-menu" viewBox="0 0 24 24">
<path d="M19 17h-14c-1.103 0-2 0.897-2 2s0.897 2 2 2h14c1.103 0 2-0.897 2-2s-0.897-2-2-2z"></path>
<path d="M19 10h-14c-1.103 0-2 0.897-2 2s0.897 2 2 2h14c1.103 0 2-0.897 2-2s-0.897-2-2-2z"></path>
<path d="M19 3h-14c-1.103 0-2 0.897-2 2s0.897 2 2 2h14c1.103 0 2-0.897 2-2s-0.897-2-2-2z"></path>
</symbol>
<symbol id="icon-th-menu-outline" viewBox="0 0 24 24">
<path d="M19 18c0.55 0 1 0.45 1 1s-0.45 1-1 1h-14c-0.55 0-1-0.45-1-1s0.45-1 1-1h14zM19 16h-14c-1.654 0-3 1.346-3 3s1.346 3 3 3h14c1.654 0 3-1.346 3-3s-1.346-3-3-3z"></path>
<path d="M19 11c0.55 0 1 0.45 1 1s-0.45 1-1 1h-14c-0.55 0-1-0.45-1-1s0.45-1 1-1h14zM19 9h-14c-1.654 0-3 1.346-3 3s1.346 3 3 3h14c1.654 0 3-1.346 3-3s-1.346-3-3-3z"></path>
<path d="M19 4c0.55 0 1 0.45 1 1s-0.45 1-1 1h-14c-0.55 0-1-0.45-1-1s0.45-1 1-1h14zM19 2h-14c-1.654 0-3 1.346-3 3s1.346 3 3 3h14c1.654 0 3-1.346 3-3s-1.346-3-3-3z"></path>
</symbol>
<symbol id="icon-arrow-circle-o-left" viewBox="0 0 24 28">
<path d="M18 12.5v3c0 0.266-0.234 0.5-0.5 0.5h-5.5v3c0 0.281-0.219 0.5-0.5 0.5-0.141 0-0.266-0.063-0.375-0.156l-4.984-4.984c-0.094-0.094-0.141-0.234-0.141-0.359s0.047-0.266 0.141-0.359l5-5c0.094-0.094 0.234-0.141 0.359-0.141 0.266 0 0.5 0.234 0.5 0.5v3h5.5c0.266 0 0.5 0.234 0.5 0.5zM20.5 14c0-4.688-3.813-8.5-8.5-8.5s-8.5 3.813-8.5 8.5 3.813 8.5 8.5 8.5 8.5-3.813 8.5-8.5zM24 14c0 6.625-5.375 12-12 12s-12-5.375-12-12 5.375-12 12-12 12 5.375 12 12z"></path>
</symbol>
<symbol id="icon-arrow-circle-o-right" viewBox="0 0 24 28">
<path d="M18 14c0 0.125-0.047 0.266-0.141 0.359l-5 5c-0.094 0.094-0.234 0.141-0.359 0.141-0.266 0-0.5-0.234-0.5-0.5v-3h-5.5c-0.266 0-0.5-0.234-0.5-0.5v-3c0-0.266 0.234-0.5 0.5-0.5h5.5v-3c0-0.281 0.219-0.5 0.5-0.5 0.141 0 0.266 0.063 0.375 0.156l4.984 4.984c0.094 0.094 0.141 0.234 0.141 0.359zM20.5 14c0-4.688-3.813-8.5-8.5-8.5s-8.5 3.813-8.5 8.5 3.813 8.5 8.5 8.5 8.5-3.813 8.5-8.5zM24 14c0 6.625-5.375 12-12 12s-12-5.375-12-12 5.375-12 12-12 12 5.375 12 12z"></path>
</symbol>
<symbol id="icon-arrow-circle-up" viewBox="0 0 24 28">
<path d="M20.062 13.984c0-0.266-0.094-0.516-0.281-0.703l-7.078-7.078c-0.187-0.187-0.438-0.281-0.703-0.281s-0.516 0.094-0.703 0.281l-7.078 7.078c-0.187 0.187-0.281 0.438-0.281 0.703s0.094 0.516 0.281 0.703l1.422 1.422c0.187 0.187 0.438 0.281 0.703 0.281s0.516-0.094 0.703-0.281l2.953-2.953v7.844c0 0.547 0.453 1 1 1h2c0.547 0 1-0.453 1-1v-7.844l2.953 2.953c0.187 0.187 0.438 0.297 0.703 0.297s0.516-0.109 0.703-0.297l1.422-1.422c0.187-0.187 0.281-0.438 0.281-0.703zM24 14c0 6.625-5.375 12-12 12s-12-5.375-12-12 5.375-12 12-12 12 5.375 12 12z"></path>
</symbol>
<symbol id="icon-arrow-circle-right" viewBox="0 0 24 28">
<path d="M20.078 14c0-0.266-0.094-0.516-0.281-0.703l-7.078-7.078c-0.187-0.187-0.438-0.281-0.703-0.281s-0.516 0.094-0.703 0.281l-1.422 1.422c-0.187 0.187-0.281 0.438-0.281 0.703s0.094 0.516 0.281 0.703l2.953 2.953h-7.844c-0.547 0-1 0.453-1 1v2c0 0.547 0.453 1 1 1h7.844l-2.953 2.953c-0.187 0.187-0.297 0.438-0.297 0.703s0.109 0.516 0.297 0.703l1.422 1.422c0.187 0.187 0.438 0.281 0.703 0.281s0.516-0.094 0.703-0.281l7.078-7.078c0.187-0.187 0.281-0.438 0.281-0.703zM24 14c0 6.625-5.375 12-12 12s-12-5.375-12-12 5.375-12 12-12 12 5.375 12 12z"></path>
</symbol>
<symbol id="icon-arrow-circle-left" viewBox="0 0 24 28">
<path d="M20 15v-2c0-0.547-0.453-1-1-1h-7.844l2.953-2.953c0.187-0.187 0.297-0.438 0.297-0.703s-0.109-0.516-0.297-0.703l-1.422-1.422c-0.187-0.187-0.438-0.281-0.703-0.281s-0.516 0.094-0.703 0.281l-7.078 7.078c-0.187 0.187-0.281 0.438-0.281 0.703s0.094 0.516 0.281 0.703l7.078 7.078c0.187 0.187 0.438 0.281 0.703 0.281s0.516-0.094 0.703-0.281l1.422-1.422c0.187-0.187 0.281-0.438 0.281-0.703s-0.094-0.516-0.281-0.703l-2.953-2.953h7.844c0.547 0 1-0.453 1-1zM24 14c0 6.625-5.375 12-12 12s-12-5.375-12-12 5.375-12 12-12 12 5.375 12 12z"></path>
</symbol>
<symbol id="icon-bicycle" viewBox="0 0 36 28">
<path d="M11.906 18h-4.906c-0.828 0-1.297-0.938-0.797-1.594l2.938-3.922c-0.656-0.313-1.375-0.484-2.141-0.484-2.75 0-5 2.25-5 5s2.25 5 5 5c2.422 0 4.438-1.719 4.906-4zM9 16h2.906c-0.187-0.875-0.594-1.672-1.172-2.312zM16.5 16l4.5-6h-7.5l-1.547 2.063c1.047 1.031 1.75 2.406 1.969 3.938h2.578zM34 17c0-2.75-2.25-5-5-5-0.672 0-1.297 0.141-1.891 0.375l2.719 4.062c0.313 0.469 0.187 1.094-0.266 1.391-0.172 0.125-0.375 0.172-0.562 0.172-0.328 0-0.641-0.156-0.828-0.453l-2.719-4.062c-0.891 0.906-1.453 2.141-1.453 3.516 0 2.75 2.25 5 5 5s5-2.25 5-5zM36 17c0 3.859-3.141 7-7 7s-7-3.141-7-7c0-2.063 0.906-3.922 2.328-5.203l-1.016-1.531-5.516 7.328c-0.187 0.266-0.484 0.406-0.797 0.406h-3.078c-0.484 3.391-3.391 6-6.922 6-3.859 0-7-3.141-7-7s3.141-7 7-7c1.219 0 2.359 0.313 3.359 0.859l2.141-2.859h-3.5c-0.547 0-1-0.453-1-1s0.453-1 1-1h6v2h6.797l-1.328-2h-3.469c-0.547 0-1-0.453-1-1s0.453-1 1-1h4c0.328 0 0.641 0.172 0.828 0.438l4.172 6.25c0.906-0.438 1.922-0.688 3-0.688 3.859 0 7 3.141 7 7z"></path>
</symbol>
<symbol id="icon-close" viewBox="0 0 20 20">
<path d="M10 8.586l-7.071-7.071-1.414 1.414 7.071 7.071-7.071 7.071 1.414 1.414 7.071-7.071 7.071 7.071 1.414-1.414-7.071-7.071 7.071-7.071-1.414-1.414-7.071 7.071z"></path>
</symbol>
<symbol id="icon-menu1" viewBox="0 0 20 20">
<path d="M0 3h20v2h-20v-2zM0 9h20v2h-20v-2zM0 15h20v2h-20v-2z"></path>
</symbol>
<symbol id="icon-travel-walk" viewBox="0 0 20 20">
<path d="M11 7l1.44 2.16c0.31 0.47 1.010 0.84 1.57 0.84h2.99v-2h-3l-1.44-2.16c-0.391-0.546-0.854-1.009-1.382-1.388l-0.018-0.012-1.32-0.88c-0.253-0.154-0.558-0.245-0.885-0.245-0.298 0-0.579 0.076-0.824 0.21l0.009-0.004-4.14 2.48v5h2v-4l2-1-3 14h2l2.35-7.65 1.65 1.65v6h2v-8l-2.7-2.7 0.7-2.3zM12 4c1.105 0 2-0.895 2-2s-0.895-2-2-2v0c-1.105 0-2 0.895-2 2s0.895 2 2 2v0z"></path>
</symbol>
<symbol id="icon-arrow-circle-right" viewBox="0 0 17 20">
<path d="M14.342 10c0-0.19-0.067-0.368-0.201-0.502l-5.056-5.056c-0.134-0.134-0.313-0.201-0.502-0.201s-0.368 0.067-0.502 0.201l-1.016 1.016c-0.134 0.134-0.201 0.313-0.201 0.502s0.067 0.368 0.201 0.502l2.109 2.109h-5.603c-0.391 0-0.714 0.324-0.714 0.714v1.429c0 0.391 0.324 0.714 0.714 0.714h5.603l-2.109 2.109c-0.134 0.134-0.212 0.313-0.212 0.502s0.078 0.368 0.212 0.502l1.016 1.016c0.134 0.134 0.313 0.201 0.502 0.201s0.368-0.067 0.502-0.201l5.056-5.056c0.134-0.134 0.201-0.313 0.201-0.502zM17.143 10c0 4.732-3.839 8.571-8.571 8.571s-8.571-3.839-8.571-8.571 3.839-8.571 8.571-8.571 8.571 3.839 8.571 8.571z"></path>
</symbol>
<symbol id="icon-arrow-circle-left" viewBox="0 0 17 20">
<path d="M14.286 10.714v-1.429c0-0.391-0.324-0.714-0.714-0.714h-5.603l2.109-2.109c0.134-0.134 0.212-0.313 0.212-0.502s-0.078-0.368-0.212-0.502l-1.016-1.016c-0.134-0.134-0.313-0.201-0.502-0.201s-0.368 0.067-0.502 0.201l-5.056 5.056c-0.134 0.134-0.201 0.313-0.201 0.502s0.067 0.368 0.201 0.502l5.056 5.056c0.134 0.134 0.313 0.201 0.502 0.201s0.368-0.067 0.502-0.201l1.016-1.016c0.134-0.134 0.201-0.313 0.201-0.502s-0.067-0.368-0.201-0.502l-2.109-2.109h5.603c0.391 0 0.714-0.324 0.714-0.714zM17.143 10c0 4.732-3.839 8.571-8.571 8.571s-8.571-3.839-8.571-8.571 3.839-8.571 8.571-8.571 8.571 3.839 8.571 8.571z"></path>
</symbol>
<symbol id="icon-bicycle" viewBox="0 0 26 20">
<path d="M8.504 12.857h-3.504c-0.592 0-0.926-0.67-0.569-1.138l2.098-2.801c-0.469-0.223-0.982-0.346-1.529-0.346-1.964 0-3.571 1.607-3.571 3.571s1.607 3.571 3.571 3.571c1.73 0 3.17-1.228 3.504-2.857zM6.429 11.429h2.076c-0.134-0.625-0.424-1.194-0.837-1.652zM11.786 11.429l3.214-4.286h-5.357l-1.105 1.473c0.748 0.737 1.25 1.719 1.406 2.813h1.842zM24.286 12.143c0-1.964-1.607-3.571-3.571-3.571-0.48 0-0.926 0.1-1.35 0.268l1.942 2.902c0.223 0.335 0.134 0.781-0.19 0.993-0.123 0.089-0.268 0.123-0.402 0.123-0.234 0-0.458-0.112-0.592-0.324l-1.942-2.902c-0.636 0.647-1.038 1.529-1.038 2.511 0 1.964 1.607 3.571 3.571 3.571s3.571-1.607 3.571-3.571zM25.714 12.143c0 2.757-2.243 5-5 5s-5-2.243-5-5c0-1.473 0.647-2.801 1.663-3.717l-0.725-1.094-3.94 5.234c-0.134 0.19-0.346 0.29-0.569 0.29h-2.199c-0.346 2.422-2.422 4.286-4.944 4.286-2.757 0-5-2.243-5-5s2.243-5 5-5c0.871 0 1.685 0.223 2.4 0.614l1.529-2.042h-2.5c-0.391 0-0.714-0.324-0.714-0.714s0.324-0.714 0.714-0.714h4.286v1.429h4.855l-0.949-1.429h-2.478c-0.391 0-0.714-0.324-0.714-0.714s0.324-0.714 0.714-0.714h2.857c0.234 0 0.458 0.123 0.592 0.313l2.98 4.464c0.647-0.313 1.373-0.491 2.143-0.491 2.757 0 5 2.243 5 5z"></path>
</symbol>
<symbol id="icon-office" viewBox="0 0 32 32">
<path d="M0 32h16v-32h-16v32zM10 4h4v4h-4v-4zM10 12h4v4h-4v-4zM10 20h4v4h-4v-4zM2 4h4v4h-4v-4zM2 12h4v4h-4v-4zM2 20h4v4h-4v-4zM18 10h14v2h-14zM18 32h4v-8h6v8h4v-18h-14z"></path>
</symbol>
<symbol id="icon-film" viewBox="0 0 32 32">
<path d="M0 4v24h32v-24h-32zM6 26h-4v-4h4v4zM6 18h-4v-4h4v4zM6 10h-4v-4h4v4zM24 26h-16v-20h16v20zM30 26h-4v-4h4v4zM30 18h-4v-4h4v4zM30 10h-4v-4h4v4zM12 10v12l8-6z"></path>
</symbol>
<symbol id="icon-video-camera" viewBox="0 0 32 32">
<path d="M12 9c0-2.761 2.239-5 5-5s5 2.239 5 5c0 2.761-2.239 5-5 5s-5-2.239-5-5zM0 9c0-2.761 2.239-5 5-5s5 2.239 5 5c0 2.761-2.239 5-5 5s-5-2.239-5-5zM24 19v-3c0-1.1-0.9-2-2-2h-20c-1.1 0-2 0.9-2 2v10c0 1.1 0.9 2 2 2h20c1.1 0 2-0.9 2-2v-3l8 5v-14l-8 5zM20 24h-16v-6h16v6z"></path>
</symbol>
<symbol id="icon-phone" viewBox="0 0 32 32">
<path d="M22 20c-2 2-2 4-4 4s-4-2-6-4-4-4-4-6 2-2 4-4-4-8-6-8-6 6-6 6c0 4 4.109 12.109 8 16s12 8 16 8c0 0 6-4 6-6s-6-8-8-6z"></path>
</symbol>
<symbol id="icon-location" viewBox="0 0 32 32">
<path d="M16 0c-5.523 0-10 4.477-10 10 0 10 10 22 10 22s10-12 10-22c0-5.523-4.477-10-10-10zM16 16c-3.314 0-6-2.686-6-6s2.686-6 6-6 6 2.686 6 6-2.686 6-6 6z"></path>
</symbol>
<symbol id="icon-user" viewBox="0 0 32 32">
<path d="M18 22.082v-1.649c2.203-1.241 4-4.337 4-7.432 0-4.971 0-9-6-9s-6 4.029-6 9c0 3.096 1.797 6.191 4 7.432v1.649c-6.784 0.555-12 3.888-12 7.918h28c0-4.030-5.216-7.364-12-7.918z"></path>
</symbol>
<symbol id="icon-users" viewBox="0 0 36 32">
<path d="M24 24.082v-1.649c2.203-1.241 4-4.337 4-7.432 0-4.971 0-9-6-9s-6 4.029-6 9c0 3.096 1.797 6.191 4 7.432v1.649c-6.784 0.555-12 3.888-12 7.918h28c0-4.030-5.216-7.364-12-7.918z"></path>
<path d="M10.225 24.854c1.728-1.13 3.877-1.989 6.243-2.513-0.47-0.556-0.897-1.176-1.265-1.844-0.95-1.726-1.453-3.627-1.453-5.497 0-2.689 0-5.228 0.956-7.305 0.928-2.016 2.598-3.265 4.976-3.734-0.529-2.39-1.936-3.961-5.682-3.961-6 0-6 4.029-6 9 0 3.096 1.797 6.191 4 7.432v1.649c-6.784 0.555-12 3.888-12 7.918h8.719c0.454-0.403 0.956-0.787 1.506-1.146z"></path>
</symbol>
<symbol id="icon-quotes-left" viewBox="0 0 32 32">
<path d="M7.031 14c3.866 0 7 3.134 7 7s-3.134 7-7 7-7-3.134-7-7l-0.031-1c0-7.732 6.268-14 14-14v4c-2.671 0-5.182 1.040-7.071 2.929-0.364 0.364-0.695 0.751-0.995 1.157 0.357-0.056 0.724-0.086 1.097-0.086zM25.031 14c3.866 0 7 3.134 7 7s-3.134 7-7 7-7-3.134-7-7l-0.031-1c0-7.732 6.268-14 14-14v4c-2.671 0-5.182 1.040-7.071 2.929-0.364 0.364-0.695 0.751-0.995 1.157 0.358-0.056 0.724-0.086 1.097-0.086z"></path>
</symbol>
<symbol id="icon-search" viewBox="0 0 32 32">
<path d="M31.008 27.231l-7.58-6.447c-0.784-0.705-1.622-1.029-2.299-0.998 1.789-2.096 2.87-4.815 2.87-7.787 0-6.627-5.373-12-12-12s-12 5.373-12 12 5.373 12 12 12c2.972 0 5.691-1.081 7.787-2.87-0.031 0.677 0.293 1.515 0.998 2.299l6.447 7.58c1.104 1.226 2.907 1.33 4.007 0.23s0.997-2.903-0.23-4.007zM12 20c-4.418 0-8-3.582-8-8s3.582-8 8-8 8 3.582 8 8-3.582 8-8 8z"></path>
</symbol>
<symbol id="icon-mug" viewBox="0 0 32 32">
<path d="M30 10h-6v-3c0-2.761-5.373-5-12-5s-12 2.239-12 5v20c0 2.761 5.373 5 12 5s12-2.239 12-5v-3h6c1.105 0 2-0.895 2-2v-10c0-1.105-0.895-2-2-2zM5.502 8.075c-1.156-0.381-1.857-0.789-2.232-1.075 0.375-0.286 1.075-0.694 2.232-1.075 1.811-0.597 4.118-0.925 6.498-0.925s4.688 0.329 6.498 0.925c1.156 0.381 1.857 0.789 2.232 1.075-0.375 0.286-1.076 0.694-2.232 1.075-1.811 0.597-4.118 0.925-6.498 0.925s-4.688-0.329-6.498-0.925zM28 20h-4v-6h4v6z"></path>
</symbol>
<symbol id="icon-man-woman" viewBox="0 0 32 32">
<path d="M8 3c0 1.657-1.343 3-3 3s-3-1.343-3-3c0-1.657 1.343-3 3-3s3 1.343 3 3z"></path>
<path d="M26 3c0 1.657-1.343 3-3 3s-3-1.343-3-3c0-1.657 1.343-3 3-3s3 1.343 3 3z"></path>
<path d="M8 8h-6c-1.105 0-2 0.895-2 2v10h2v12h2.5v-12h1v12h2.5v-12h2v-10c0-1.105-0.895-2-2-2z"></path>
<path d="M30.469 16l1.531-1.109-4.165-6.441c-0.185-0.281-0.499-0.45-0.835-0.45h-8c-0.336 0-0.65 0.169-0.835 0.45l-4.165 6.441 1.531 1.109 3.458-4.487 1.202 2.804-4.191 7.683h3.833l0.667 10h2v-10h1v10h2l0.667-10h3.833l-4.191-7.683 1.202-2.804 3.458 4.487z"></path>
</symbol>
<symbol id="icon-happy" viewBox="0 0 32 32">
<path d="M16 32c8.837 0 16-7.163 16-16s-7.163-16-16-16-16 7.163-16 16 7.163 16 16 16zM16 3c7.18 0 13 5.82 13 13s-5.82 13-13 13-13-5.82-13-13 5.82-13 13-13zM16 18.711c3.623 0 7.070-0.963 10-2.654-0.455 5.576-4.785 9.942-10 9.942s-9.544-4.371-10-9.947c2.93 1.691 6.377 2.658 10 2.658zM8 11c0-1.657 0.895-3 2-3s2 1.343 2 3c0 1.657-0.895 3-2 3s-2-1.343-2-3zM20 11c0-1.657 0.895-3 2-3s2 1.343 2 3c0 1.657-0.895 3-2 3s-2-1.343-2-3z"></path>
</symbol>
<symbol id="icon-circle-right" viewBox="0 0 32 32">
<path d="M16 0c-8.837 0-16 7.163-16 16s7.163 16 16 16 16-7.163 16-16-7.163-16-16-16zM16 29c-7.18 0-13-5.82-13-13s5.82-13 13-13 13 5.82 13 13-5.82 13-13 13z"></path>
<path d="M11.086 22.086l2.829 2.829 8.914-8.914-8.914-8.914-2.828 2.828 6.086 6.086z"></path>
</symbol>
<symbol id="icon-circle-left" viewBox="0 0 32 32">
<path d="M16 32c8.837 0 16-7.163 16-16s-7.163-16-16-16-16 7.163-16 16 7.163 16 16 16zM16 3c7.18 0 13 5.82 13 13s-5.82 13-13 13-13-5.82-13-13 5.82-13 13-13z"></path>
<path d="M20.914 9.914l-2.829-2.829-8.914 8.914 8.914 8.914 2.828-2.828-6.086-6.086z"></path>
</symbol>
<symbol id="icon-mail2" viewBox="0 0 32 32">
<path d="M26.667 0h-21.333c-2.934 0-5.334 2.4-5.334 5.334v21.332c0 2.936 2.4 5.334 5.334 5.334h21.333c2.934 0 5.333-2.398 5.333-5.334v-21.332c0-2.934-2.399-5.334-5.333-5.334zM26.667 4c0.25 0 0.486 0.073 0.688 0.198l-11.355 9.388-11.355-9.387c0.202-0.125 0.439-0.198 0.689-0.198h21.333zM5.334 28c-0.060 0-0.119-0.005-0.178-0.013l7.051-9.78-0.914-0.914-7.293 7.293v-19.098l12 14.512 12-14.512v19.098l-7.293-7.293-0.914 0.914 7.051 9.78c-0.058 0.008-0.117 0.013-0.177 0.013h-21.333z"></path>
</symbol>
<symbol id="icon-facebook" viewBox="0 0 32 32">
<path d="M19 6h5v-6h-5c-3.86 0-7 3.14-7 7v3h-4v6h4v16h6v-16h5l1-6h-6v-3c0-0.542 0.458-1 1-1z"></path>
</symbol>
<symbol id="icon-instagram" viewBox="0 0 32 32">
<path d="M16 2.881c4.275 0 4.781 0.019 6.462 0.094 1.563 0.069 2.406 0.331 2.969 0.55 0.744 0.288 1.281 0.638 1.837 1.194 0.563 0.563 0.906 1.094 1.2 1.838 0.219 0.563 0.481 1.412 0.55 2.969 0.075 1.688 0.094 2.194 0.094 6.463s-0.019 4.781-0.094 6.463c-0.069 1.563-0.331 2.406-0.55 2.969-0.288 0.744-0.637 1.281-1.194 1.837-0.563 0.563-1.094 0.906-1.837 1.2-0.563 0.219-1.413 0.481-2.969 0.55-1.688 0.075-2.194 0.094-6.463 0.094s-4.781-0.019-6.463-0.094c-1.563-0.069-2.406-0.331-2.969-0.55-0.744-0.288-1.281-0.637-1.838-1.194-0.563-0.563-0.906-1.094-1.2-1.837-0.219-0.563-0.481-1.413-0.55-2.969-0.075-1.688-0.094-2.194-0.094-6.463s0.019-4.781 0.094-6.463c0.069-1.563 0.331-2.406 0.55-2.969 0.288-0.744 0.638-1.281 1.194-1.838 0.563-0.563 1.094-0.906 1.838-1.2 0.563-0.219 1.412-0.481 2.969-0.55 1.681-0.075 2.188-0.094 6.463-0.094zM16 0c-4.344 0-4.887 0.019-6.594 0.094-1.7 0.075-2.869 0.35-3.881 0.744-1.056 0.412-1.95 0.956-2.837 1.85-0.894 0.888-1.438 1.781-1.85 2.831-0.394 1.019-0.669 2.181-0.744 3.881-0.075 1.713-0.094 2.256-0.094 6.6s0.019 4.887 0.094 6.594c0.075 1.7 0.35 2.869 0.744 3.881 0.413 1.056 0.956 1.95 1.85 2.837 0.887 0.887 1.781 1.438 2.831 1.844 1.019 0.394 2.181 0.669 3.881 0.744 1.706 0.075 2.25 0.094 6.594 0.094s4.888-0.019 6.594-0.094c1.7-0.075 2.869-0.35 3.881-0.744 1.050-0.406 1.944-0.956 2.831-1.844s1.438-1.781 1.844-2.831c0.394-1.019 0.669-2.181 0.744-3.881 0.075-1.706 0.094-2.25 0.094-6.594s-0.019-4.887-0.094-6.594c-0.075-1.7-0.35-2.869-0.744-3.881-0.394-1.063-0.938-1.956-1.831-2.844-0.887-0.887-1.781-1.438-2.831-1.844-1.019-0.394-2.181-0.669-3.881-0.744-1.712-0.081-2.256-0.1-6.6-0.1v0z"></path>
<path d="M16 7.781c-4.537 0-8.219 3.681-8.219 8.219s3.681 8.219 8.219 8.219 8.219-3.681 8.219-8.219c0-4.537-3.681-8.219-8.219-8.219zM16 21.331c-2.944 0-5.331-2.387-5.331-5.331s2.387-5.331 5.331-5.331c2.944 0 5.331 2.387 5.331 5.331s-2.387 5.331-5.331 5.331z"></path>
<path d="M26.462 7.456c0 1.060-0.859 1.919-1.919 1.919s-1.919-0.859-1.919-1.919c0-1.060 0.859-1.919 1.919-1.919s1.919 0.859 1.919 1.919z"></path>
</symbol>
<symbol id="icon-whatsapp" viewBox="0 0 32 32">
<path d="M27.281 4.65c-2.994-3-6.975-4.65-11.219-4.65-8.738 0-15.85 7.112-15.85 15.856 0 2.794 0.731 5.525 2.119 7.925l-2.25 8.219 8.406-2.206c2.319 1.262 4.925 1.931 7.575 1.931h0.006c0 0 0 0 0 0 8.738 0 15.856-7.113 15.856-15.856 0-4.238-1.65-8.219-4.644-11.219zM16.069 29.050v0c-2.369 0-4.688-0.637-6.713-1.837l-0.481-0.288-4.987 1.306 1.331-4.863-0.313-0.5c-1.325-2.094-2.019-4.519-2.019-7.012 0-7.269 5.912-13.181 13.188-13.181 3.519 0 6.831 1.375 9.319 3.862 2.488 2.494 3.856 5.8 3.856 9.325-0.006 7.275-5.919 13.188-13.181 13.188zM23.294 19.175c-0.394-0.2-2.344-1.156-2.706-1.288s-0.625-0.2-0.894 0.2c-0.262 0.394-1.025 1.288-1.256 1.556-0.231 0.262-0.462 0.3-0.856 0.1s-1.675-0.619-3.188-1.969c-1.175-1.050-1.975-2.35-2.206-2.744s-0.025-0.613 0.175-0.806c0.181-0.175 0.394-0.463 0.594-0.694s0.262-0.394 0.394-0.662c0.131-0.262 0.069-0.494-0.031-0.694s-0.894-2.15-1.219-2.944c-0.319-0.775-0.65-0.669-0.894-0.681-0.231-0.012-0.494-0.012-0.756-0.012s-0.694 0.1-1.056 0.494c-0.363 0.394-1.387 1.356-1.387 3.306s1.419 3.831 1.619 4.1c0.2 0.262 2.794 4.269 6.769 5.981 0.944 0.406 1.681 0.65 2.256 0.837 0.95 0.3 1.813 0.256 2.494 0.156 0.762-0.113 2.344-0.956 2.675-1.881s0.331-1.719 0.231-1.881c-0.094-0.175-0.356-0.275-0.756-0.475z"></path>
</symbol>
<symbol id="icon-twitter" viewBox="0 0 32 32">
<path d="M32 7.075c-1.175 0.525-2.444 0.875-3.769 1.031 1.356-0.813 2.394-2.1 2.887-3.631-1.269 0.75-2.675 1.3-4.169 1.594-1.2-1.275-2.906-2.069-4.794-2.069-3.625 0-6.563 2.938-6.563 6.563 0 0.512 0.056 1.012 0.169 1.494-5.456-0.275-10.294-2.888-13.531-6.862-0.563 0.969-0.887 2.1-0.887 3.3 0 2.275 1.156 4.287 2.919 5.463-1.075-0.031-2.087-0.331-2.975-0.819 0 0.025 0 0.056 0 0.081 0 3.181 2.263 5.838 5.269 6.437-0.55 0.15-1.131 0.231-1.731 0.231-0.425 0-0.831-0.044-1.237-0.119 0.838 2.606 3.263 4.506 6.131 4.563-2.25 1.762-5.075 2.813-8.156 2.813-0.531 0-1.050-0.031-1.569-0.094 2.913 1.869 6.362 2.95 10.069 2.95 12.075 0 18.681-10.006 18.681-18.681 0-0.287-0.006-0.569-0.019-0.85 1.281-0.919 2.394-2.075 3.275-3.394z"></path>
</symbol>
<symbol id="icon-linkedin" viewBox="0 0 32 32">
<path d="M29 0h-26c-1.65 0-3 1.35-3 3v26c0 1.65 1.35 3 3 3h26c1.65 0 3-1.35 3-3v-26c0-1.65-1.35-3-3-3zM12 26h-4v-14h4v14zM10 10c-1.106 0-2-0.894-2-2s0.894-2 2-2c1.106 0 2 0.894 2 2s-0.894 2-2 2zM26 26h-4v-8c0-1.106-0.894-2-2-2s-2 0.894-2 2v8h-4v-14h4v2.481c0.825-1.131 2.087-2.481 3.5-2.481 2.488 0 4.5 2.238 4.5 5v9z"></path>
</symbol>
</defs>
</svg>
