<svg aria-hidden="true" style="position: absolute; width: 0; height: 0; overflow: hidden;" version="1.1" xmlns="http://www.w3.org/2000/svg" xmlns:xlink="http://www.w3.org/1999/xlink">
<defs>
<symbol id="icon-angellist" viewBox="0 0 32 32">
<path d="M21.953 13.272c0.98-2.667 1.747-4.867 2.297-6.605 0.547-1.733 0.824-2.8 0.824-3.2 0-0.42-0.093-0.752-0.28-0.984-0.18-0.232-0.432-0.352-0.756-0.352-0.413 0-0.84 0.34-1.253 1.020-0.427 0.68-0.893 1.779-1.413 3.289l-2.2 6.347 2.76 0.483zM19.029 19.185c-0.632-0.040-1.231-0.107-1.792-0.2-0.56-0.107-1.107-0.253-1.621-0.44 0.236 0.467 0.447 0.933 0.629 1.4 0.184 0.467 0.333 0.92 0.453 1.387 0.347-0.44 0.72-0.84 1.107-1.2 0.389-0.36 0.8-0.68 1.224-0.947zM16.547 12.519l-2.373-6.853c-0.619-1.747-1.093-2.88-1.433-3.427-0.333-0.533-0.7-0.8-1.096-0.8-0.307 0-0.556 0.107-0.747 0.347-0.192 0.24-0.285 0.547-0.285 0.933 0 0.667 0.253 1.84 0.76 3.52 0.507 1.667 1.28 3.853 2.307 6.573 0.080-0.16 0.213-0.28 0.373-0.347s0.373-0.107 0.653-0.107c0.080 0 0.253 0.013 0.52 0.013 0.253 0.027 0.693 0.053 1.293 0.12zM14.389 23.132c0.251 0 0.48-0.12 0.68-0.347 0.2-0.24 0.312-0.48 0.312-0.733 0-0.28-0.2-0.933-0.603-1.947-0.4-1.013-0.907-2.013-1.507-3-0.44-0.733-0.873-1.293-1.293-1.667-0.432-0.373-0.833-0.56-1.213-0.56-0.307 0-0.645 0.187-1.023 0.587-0.373 0.387-0.56 0.747-0.56 1.080 0 0.347 0.187 0.88 0.551 1.573 0.367 0.707 0.86 1.453 1.472 2.24 0.647 0.867 1.253 1.533 1.827 2.013 0.571 0.48 1.027 0.72 1.36 0.72h-0.003zM7.796 22.599c0.208 0.253 0.493 0.613 0.861 1.093 0.964 1.333 1.86 2 2.68 2 0.28 0 0.529-0.093 0.751-0.267 0.219-0.187 0.329-0.36 0.329-0.56 0-0.227-0.147-0.587-0.44-1.107-0.296-0.52-0.699-1.093-1.209-1.733-0.587-0.747-1.073-1.293-1.464-1.64-0.384-0.347-0.7-0.52-0.929-0.52-0.507 0-0.987 0.28-1.413 0.827-0.427 0.533-0.64 1.2-0.64 1.947 0 0.6 0.16 1.267 0.467 2.013 0.307 0.733 0.733 1.48 1.307 2.227 0.867 1.16 1.947 2.040 3.227 2.667 1.28 0.613 2.707 0.92 4.253 0.92 2.853 0 5.253-1.067 7.173-3.2 1.933-2.133 2.893-4.8 2.893-8.013 0-0.987-0.067-1.773-0.213-2.347s-0.387-1-0.72-1.267c-0.6-0.507-1.773-0.947-3.507-1.347s-3.547-0.6-5.44-0.6c-0.52 0-0.907 0.093-1.12 0.267s-0.32 0.48-0.32 0.897c0 1 0.56 1.72 1.68 2.168 1.12 0.453 2.92 0.68 5.413 0.68h0.901c0.2 0 0.373 0.080 0.493 0.232 0.12 0.147 0.2 0.373 0.24 0.693-0.253 0.227-0.76 0.493-1.539 0.8-0.787 0.293-1.373 0.6-1.787 0.887-0.88 0.645-1.587 1.413-2.12 2.299-0.533 0.88-0.8 1.72-0.8 2.511 0 0.48 0.115 1.067 0.344 1.747 0.227 0.68 0.347 1.097 0.347 1.267v0.147l-0.040 0.2c-0.64-0.040-1.147-0.417-1.52-1.133-0.383-0.707-0.56-1.653-0.56-2.84v-0.2c-0.12 0.1-0.235 0.18-0.347 0.22-0.115 0.045-0.237 0.067-0.36 0.067-0.133 0-0.264-0.008-0.387-0.027-0.12-0.021-0.24-0.053-0.387-0.1 0.040 0.16 0.076 0.32 0.101 0.471 0.013 0.16 0.027 0.28 0.027 0.36 0 0.541-0.213 1.013-0.64 1.4-0.427 0.383-0.933 0.573-1.52 0.573-0.92 0-1.863-0.453-2.813-1.347-0.953-0.899-1.427-1.787-1.427-2.647 0-0.16 0.020-0.307 0.053-0.431s0.1-0.227 0.187-0.32zM23.539 13.625c1.313 0.24 2.247 0.8 2.787 1.667 0.547 0.853 0.813 2.213 0.813 4.080 0 3.693-1.104 6.707-3.323 9.053-2.223 2.347-5.063 3.533-8.516 3.533-1.364 0-2.688-0.253-3.968-0.747-1.293-0.493-2.387-1.187-3.32-2.053-1.053-0.973-1.853-1.987-2.373-3.067-0.533-1.080-0.8-2.187-0.8-3.307 0-1.267 0.267-2.24 0.8-2.92 0.533-0.693 1.4-1.16 2.573-1.413-0.227-0.52-0.387-0.947-0.48-1.307-0.107-0.36-0.16-0.627-0.16-0.813 0-0.667 0.347-1.347 1.040-2.027 0.693-0.693 1.347-1.040 1.96-1.040 0.253 0 0.533 0.040 0.827 0.147 0.293 0.093 0.627 0.253 1 0.467-1.080-3.133-1.907-5.6-2.413-7.333-0.52-1.747-0.773-2.933-0.773-3.6 0-0.907 0.227-1.64 0.693-2.173 0.48-0.533 1.12-0.8 1.92-0.8 1.373 0 3.12 3.080 5.24 9.231 0.373 1.053 0.64 1.867 0.84 2.44l0.68-1.937c2.12-6.067 3.933-9.107 5.467-9.107 0.747 0 1.347 0.253 1.787 0.76 0.44 0.511 0.667 1.183 0.667 2.031 0 0.64-0.253 1.813-0.747 3.533-0.489 1.707-1.227 3.947-2.227 6.72z"></path>
</symbol>
<symbol id="icon-bitrise" viewBox="0 0 32 32">
<path fill="#683d87" style="fill: var(--color1, #683d87)" d="M16 23.867c2 0 3.6-1.6 3.6-3.6h-7.2c0 2 1.6 3.6 3.6 3.6zM8 16c-1.2 0-2.133 0.933-2.133 2.133h4.4c0-1.2-1.067-2.133-2.267-2.133zM16 5.467c0.8 0 1.333-0.667 1.333-1.333 0-0.8-0.667-1.333-1.333-1.333-0.8 0-1.333 0.667-1.333 1.333 0 0.8 0.533 1.333 1.333 1.333zM31.333 17.867c-0.4-2.533-0.933-5.067-1.333-6.667-0.533-2-2.133-3.467-4.267-3.6-2-0.133-5.333-0.267-9.867-0.267-4.4 0-7.733 0.133-9.867 0.267-1.867 0.133-3.6 1.6-4 3.6-0.4 1.733-0.933 4.267-1.333 6.667-0.267 1.733-0.4 3.733-0.667 6-0.133 1.2 0.267 2.533 1.2 3.467 0.8 0.933 2 1.467 3.2 1.6 2.8 0.133 7.067 0.267 11.6 0.267s8.8-0.133 11.6-0.267c1.2 0 2.4-0.667 3.2-1.6s1.2-2.133 1.2-3.467c-0.133-2.267-0.4-4.267-0.667-6zM29.2 25.733c-0.4 0.533-1.067 0.8-1.733 0.8-2.8 0.133-6.933 0.267-11.467 0.267s-8.667-0.133-11.467-0.267c-0.667 0-1.333-0.267-1.733-0.8s-0.667-1.067-0.667-1.733c0.133-2.133 0.267-4.133 0.533-5.733 0.4-2.4 0.933-4.933 1.333-6.533 0.267-1.067 1.2-1.867 2.267-1.867 2-0.267 5.333-0.4 9.733-0.4s7.733 0.133 9.733 0.267c1.067 0 2 0.8 2.267 1.867 0.4 1.6 0.933 4.133 1.333 6.533 0.267 1.6 0.4 3.6 0.533 5.733 0 0.8-0.267 1.333-0.667 1.867zM24 16c-1.2 0-2.133 0.933-2.133 2.133h4.4c-0.133-1.2-1.067-2.133-2.267-2.133z"></path>
</symbol>
<symbol id="icon-probot" viewBox="0 0 32 32">
<path fill="#00b0d8" style="fill: var(--color2, #00b0d8)" d="M16 0.053c-1.283 0.001-2.323 1.041-2.323 2.324 0 1.027 0.667 1.899 1.591 2.206l0.016 0.005-0.841 3.439h-11.168c-1.809 0-3.275 1.466-3.275 3.275v0 17.372c0 1.809 1.466 3.275 3.275 3.275v0h25.451c1.808 0 3.275-1.467 3.275-3.275v-17.372c0-1.808-1.467-3.275-3.275-3.275h-11.204l-0.821-3.433c0.949-0.307 1.624-1.183 1.624-2.216 0-1.283-1.040-2.324-2.324-2.324v0zM5.244 10.508h21.515c1.468 0 2.659 1.191 2.659 2.659v13.489c0 1.468-1.19 2.659-2.659 2.659v0h-21.515c-1.468 0-2.659-1.19-2.659-2.659v0-13.489c0-1.468 1.191-2.659 2.659-2.659zM9.583 13.591c-3.369 0-6.1 2.731-6.1 6.1s2.731 6.1 6.1 6.1v0c3.369 0 6.1-2.731 6.1-6.1s-2.731-6.1-6.1-6.1v0zM22.573 13.591c-3.369 0-6.1 2.731-6.1 6.1s2.731 6.1 6.1 6.1v0c3.369 0 6.1-2.731 6.1-6.1s-2.731-6.1-6.1-6.1v0zM9.583 15.017c0.023-0 0.051-0.001 0.079-0.001 2.582 0 4.675 2.093 4.675 4.675s-2.093 4.675-4.675 4.675c-0.028 0-0.055-0-0.083-0.001l0.004 0c-2.548-0.044-4.596-2.12-4.596-4.674s2.048-4.63 4.592-4.674l0.004-0zM22.573 15.017c0.023-0 0.051-0.001 0.079-0.001 2.582 0 4.675 2.093 4.675 4.675s-2.093 4.675-4.675 4.675c-0.028 0-0.055-0-0.083-0.001l0.004 0c-2.548-0.044-4.596-2.12-4.596-4.674s2.048-4.63 4.592-4.674l0.004-0zM9.583 17.235c-1.357 0-2.457 1.1-2.457 2.457s1.1 2.457 2.457 2.457v0c1.357 0 2.457-1.1 2.457-2.457s-1.1-2.457-2.457-2.457v0zM22.573 17.235c-1.357 0-2.457 1.1-2.457 2.457s1.1 2.457 2.457 2.457v0c1.357 0 2.457-1.1 2.457-2.457s-1.1-2.457-2.457-2.457v0zM13.337 25.901v2.879h0.941v-2.879zM14.773 25.901v2.879h0.94v-2.879zM16.208 25.901v2.879h0.941v-2.879zM17.644 25.901v2.879h0.941v-2.879zM19.080 25.941v2.8c0.638-0.156 1.104-0.723 1.105-1.399v-0.001c0-0.68-0.472-1.249-1.105-1.4zM12.843 25.979c-0.571 0.199-0.974 0.733-0.975 1.361v0.001c0 0.632 0.408 1.168 0.975 1.361z"></path>
</symbol>
<symbol id="icon-reddit" viewBox="0 0 32 32">
<path fill="#ff4500" style="fill: var(--color3, #ff4500)" d="M2.939 18.732c-0.080 0.368-0.121 0.747-0.121 1.129 0 4.591 5.869 8.332 13.085 8.332 7.213 0 13.083-3.739 13.083-8.332 0-0.365-0.039-0.728-0.109-1.079l-0.020-0.043c-0.028-0.073-0.039-0.147-0.039-0.22-0.403-1.567-1.489-2.988-3.061-4.137-0.060-0.021-0.117-0.052-0.168-0.093-0.035-0.027-0.060-0.056-0.089-0.085-2.389-1.645-5.808-2.677-9.595-2.677-3.753 0-7.139 1.012-9.528 2.628-0.019 0.024-0.039 0.044-0.065 0.065-0.052 0.044-0.112 0.080-0.173 0.1-1.608 1.149-2.723 2.583-3.139 4.164 0 0.077-0.019 0.152-0.049 0.228zM15.969 25.987c-2.392 0-4.076-0.519-5.151-1.596-0.231-0.232-0.231-0.609 0-0.843 0.235-0.22 0.613-0.22 0.847 0 0.84 0.839 2.247 1.257 4.304 1.257 2.056 0 3.455-0.4 4.292-1.239 0.22-0.219 0.6-0.219 0.839 0 0.22 0.24 0.22 0.62 0 0.86-1.079 1.077-2.753 1.597-5.149 1.597zM11.161 15.889c-1.219 0-2.236 1.020-2.236 2.236 0 1.213 1.017 2.2 2.236 2.2s2.201-0.987 2.201-2.2c0-1.216-0.985-2.236-2.201-2.236zM20.805 15.889c-1.219 0-2.237 1.020-2.237 2.236 0 1.213 1.019 2.2 2.237 2.2s2.201-0.987 2.201-2.2c0-1.216-0.985-2.236-2.201-2.236zM26.869 13.763c1.383 1.111 2.4 2.428 2.919 3.872 0.6-0.448 0.959-1.152 0.959-1.932 0-1.336-1.087-2.421-2.424-2.421-0.532 0-1.037 0.172-1.453 0.484zM3.615 13.284c-1.337 0-2.423 1.088-2.423 2.424 0 0.724 0.319 1.397 0.859 1.852 0.535-1.439 1.563-2.737 2.951-3.835-0.403-0.28-0.884-0.439-1.385-0.439zM15.904 29.389c-7.875 0-14.279-4.273-14.279-9.523 0-0.367 0.031-0.725 0.091-1.079-1.057-0.657-1.716-1.816-1.716-3.085 0-1.995 1.636-3.617 3.633-3.617 0.899 0 1.737 0.328 2.396 0.909 2.475-1.588 5.809-2.588 9.483-2.656l2.416-7.365 0.539 0.127c0 0 0.021 0 0.021 0.003l5.631 1.324c0.459-1.064 1.517-1.813 2.753-1.813 1.639 0 2.975 1.339 2.975 2.979 0 1.643-1.337 2.979-2.975 2.979s-2.973-1.339-2.973-2.973l-5.135-1.216-1.956 5.969c3.533 0.14 6.729 1.139 9.125 2.695 0.659-0.619 1.525-0.959 2.444-0.959 1.997 0 3.624 1.617 3.624 3.615 0 1.316-0.72 2.515-1.837 3.153 0.039 0.34 0.079 0.659 0.079 0.999-0.020 5.251-6.408 9.524-14.293 9.524zM26.809 3.807c-0.987 0-1.787 0.799-1.787 1.784 0 0.984 0.8 1.787 1.787 1.787 0.976 0 1.773-0.8 1.773-1.779 0-0.977-0.797-1.776-1.796-1.776z"></path>
</symbol>
<symbol id="icon-bicycle" viewBox="0 0 36 28">
<path d="M11.906 18h-4.906c-0.828 0-1.297-0.938-0.797-1.594l2.938-3.922c-0.656-0.313-1.375-0.484-2.141-0.484-2.75 0-5 2.25-5 5s2.25 5 5 5c2.422 0 4.438-1.719 4.906-4zM9 16h2.906c-0.187-0.875-0.594-1.672-1.172-2.312zM16.5 16l4.5-6h-7.5l-1.547 2.063c1.047 1.031 1.75 2.406 1.969 3.938h2.578zM34 17c0-2.75-2.25-5-5-5-0.672 0-1.297 0.141-1.891 0.375l2.719 4.062c0.313 0.469 0.187 1.094-0.266 1.391-0.172 0.125-0.375 0.172-0.562 0.172-0.328 0-0.641-0.156-0.828-0.453l-2.719-4.062c-0.891 0.906-1.453 2.141-1.453 3.516 0 2.75 2.25 5 5 5s5-2.25 5-5zM36 17c0 3.859-3.141 7-7 7s-7-3.141-7-7c0-2.063 0.906-3.922 2.328-5.203l-1.016-1.531-5.516 7.328c-0.187 0.266-0.484 0.406-0.797 0.406h-3.078c-0.484 3.391-3.391 6-6.922 6-3.859 0-7-3.141-7-7s3.141-7 7-7c1.219 0 2.359 0.313 3.359 0.859l2.141-2.859h-3.5c-0.547 0-1-0.453-1-1s0.453-1 1-1h6v2h6.797l-1.328-2h-3.469c-0.547 0-1-0.453-1-1s0.453-1 1-1h4c0.328 0 0.641 0.172 0.828 0.438l4.172 6.25c0.906-0.438 1.922-0.688 3-0.688 3.859 0 7 3.141 7 7z"></path>
</symbol>
<symbol id="icon-travel-walk" viewBox="0 0 20 20">
<path d="M11 7l1.44 2.16c0.31 0.47 1.010 0.84 1.57 0.84h2.99v-2h-3l-1.44-2.16c-0.391-0.546-0.854-1.009-1.382-1.388l-0.018-0.012-1.32-0.88c-0.253-0.154-0.558-0.245-0.885-0.245-0.298 0-0.579 0.076-0.824 0.21l0.009-0.004-4.14 2.48v5h2v-4l2-1-3 14h2l2.35-7.65 1.65 1.65v6h2v-8l-2.7-2.7 0.7-2.3zM12 4c1.105 0 2-0.895 2-2s-0.895-2-2-2v0c-1.105 0-2 0.895-2 2s0.895 2 2 2v0z"></path>
</symbol>
<symbol id="icon-office" viewBox="0 0 32 32">
<path d="M0 32h16v-32h-16v32zM10 4h4v4h-4v-4zM10 12h4v4h-4v-4zM10 20h4v4h-4v-4zM2 4h4v4h-4v-4zM2 12h4v4h-4v-4zM2 20h4v4h-4v-4zM18 10h14v2h-14zM18 32h4v-8h6v8h4v-18h-14z"></path>
</symbol>
<symbol id="icon-phone" viewBox="0 0 32 32">
<path d="M22 20c-2 2-2 4-4 4s-4-2-6-4-4-4-4-6 2-2 4-4-4-8-6-8-6 6-6 6c0 4 4.109 12.109 8 16s12 8 16 8c0 0 6-4 6-6s-6-8-8-6z"></path>
</symbol>
<symbol id="icon-location" viewBox="0 0 32 32">
<path d="M16 0c-5.523 0-10 4.477-10 10 0 10 10 22 10 22s10-12 10-22c0-5.523-4.477-10-10-10zM16 16c-3.314 0-6-2.686-6-6s2.686-6 6-6 6 2.686 6 6-2.686 6-6 6z"></path>
</symbol>
<symbol id="icon-user" viewBox="0 0 32 32">
<path d="M18 22.082v-1.649c2.203-1.241 4-4.337 4-7.432 0-4.971 0-9-6-9s-6 4.029-6 9c0 3.096 1.797 6.191 4 7.432v1.649c-6.784 0.555-12 3.888-12 7.918h28c0-4.030-5.216-7.364-12-7.918z"></path>
</symbol>
<symbol id="icon-users" viewBox="0 0 36 32">
<path d="M24 24.082v-1.649c2.203-1.241 4-4.337 4-7.432 0-4.971 0-9-6-9s-6 4.029-6 9c0 3.096 1.797 6.191 4 7.432v1.649c-6.784 0.555-12 3.888-12 7.918h28c0-4.030-5.216-7.364-12-7.918z"></path>
<path d="M10.225 24.854c1.728-1.13 3.877-1.989 6.243-2.513-0.47-0.556-0.897-1.176-1.265-1.844-0.95-1.726-1.453-3.627-1.453-5.497 0-2.689 0-5.228 0.956-7.305 0.928-2.016 2.598-3.265 4.976-3.734-0.529-2.39-1.936-3.961-5.682-3.961-6 0-6 4.029-6 9 0 3.096 1.797 6.191 4 7.432v1.649c-6.784 0.555-12 3.888-12 7.918h8.719c0.454-0.403 0.956-0.787 1.506-1.146z"></path>
</symbol>
<symbol id="icon-quotes-left" viewBox="0 0 32 32">
<path d="M7.031 14c3.866 0 7 3.134 7 7s-3.134 7-7 7-7-3.134-7-7l-0.031-1c0-7.732 6.268-14 14-14v4c-2.671 0-5.182 1.040-7.071 2.929-0.364 0.364-0.695 0.751-0.995 1.157 0.357-0.056 0.724-0.086 1.097-0.086zM25.031 14c3.866 0 7 3.134 7 7s-3.134 7-7 7-7-3.134-7-7l-0.031-1c0-7.732 6.268-14 14-14v4c-2.671 0-5.182 1.040-7.071 2.929-0.364 0.364-0.695 0.751-0.995 1.157 0.358-0.056 0.724-0.086 1.097-0.086z"></path>
</symbol>
<symbol id="icon-search" viewBox="0 0 32 32">
<path d="M31.008 27.231l-7.58-6.447c-0.784-0.705-1.622-1.029-2.299-0.998 1.789-2.096 2.87-4.815 2.87-7.787 0-6.627-5.373-12-12-12s-12 5.373-12 12 5.373 12 12 12c2.972 0 5.691-1.081 7.787-2.87-0.031 0.677 0.293 1.515 0.998 2.299l6.447 7.58c1.104 1.226 2.907 1.33 4.007 0.23s0.997-2.903-0.23-4.007zM12 20c-4.418 0-8-3.582-8-8s3.582-8 8-8 8 3.582 8 8-3.582 8-8 8z"></path>
</symbol>
<symbol id="icon-mug" viewBox="0 0 32 32">
<path d="M30 10h-6v-3c0-2.761-5.373-5-12-5s-12 2.239-12 5v20c0 2.761 5.373 5 12 5s12-2.239 12-5v-3h6c1.105 0 2-0.895 2-2v-10c0-1.105-0.895-2-2-2zM5.502 8.075c-1.156-0.381-1.857-0.789-2.232-1.075 0.375-0.286 1.075-0.694 2.232-1.075 1.811-0.597 4.118-0.925 6.498-0.925s4.688 0.329 6.498 0.925c1.156 0.381 1.857 0.789 2.232 1.075-0.375 0.286-1.076 0.694-2.232 1.075-1.811 0.597-4.118 0.925-6.498 0.925s-4.688-0.329-6.498-0.925zM28 20h-4v-6h4v6z"></path>
</symbol>
<symbol id="icon-man-woman" viewBox="0 0 32 32">
<path d="M8 3c0 1.657-1.343 3-3 3s-3-1.343-3-3c0-1.657 1.343-3 3-3s3 1.343 3 3z"></path>
<path d="M26 3c0 1.657-1.343 3-3 3s-3-1.343-3-3c0-1.657 1.343-3 3-3s3 1.343 3 3z"></path>
<path d="M8 8h-6c-1.105 0-2 0.895-2 2v10h2v12h2.5v-12h1v12h2.5v-12h2v-10c0-1.105-0.895-2-2-2z"></path>
<path d="M30.469 16l1.531-1.109-4.165-6.441c-0.185-0.281-0.499-0.45-0.835-0.45h-8c-0.336 0-0.65 0.169-0.835 0.45l-4.165 6.441 1.531 1.109 3.458-4.487 1.202 2.804-4.191 7.683h3.833l0.667 10h2v-10h1v10h2l0.667-10h3.833l-4.191-7.683 1.202-2.804 3.458 4.487z"></path>
</symbol>
<symbol id="icon-happy" viewBox="0 0 32 32">
<path d="M16 32c8.837 0 16-7.163 16-16s-7.163-16-16-16-16 7.163-16 16 7.163 16 16 16zM16 3c7.18 0 13 5.82 13 13s-5.82 13-13 13-13-5.82-13-13 5.82-13 13-13zM16 18.711c3.623 0 7.070-0.963 10-2.654-0.455 5.576-4.785 9.942-10 9.942s-9.544-4.371-10-9.947c2.93 1.691 6.377 2.658 10 2.658zM8 11c0-1.657 0.895-3 2-3s2 1.343 2 3c0 1.657-0.895 3-2 3s-2-1.343-2-3zM20 11c0-1.657 0.895-3 2-3s2 1.343 2 3c0 1.657-0.895 3-2 3s-2-1.343-2-3z"></path>
</symbol>
<symbol id="icon-mail2" viewBox="0 0 32 32">
<path d="M26.667 0h-21.333c-2.934 0-5.334 2.4-5.334 5.334v21.332c0 2.936 2.4 5.334 5.334 5.334h21.333c2.934 0 5.333-2.398 5.333-5.334v-21.332c0-2.934-2.399-5.334-5.333-5.334zM26.667 4c0.25 0 0.486 0.073 0.688 0.198l-11.355 9.388-11.355-9.387c0.202-0.125 0.439-0.198 0.689-0.198h21.333zM5.334 28c-0.060 0-0.119-0.005-0.178-0.013l7.051-9.78-0.914-0.914-7.293 7.293v-19.098l12 14.512 12-14.512v19.098l-7.293-7.293-0.914 0.914 7.051 9.78c-0.058 0.008-0.117 0.013-0.177 0.013h-21.333z"></path>
</symbol>
<symbol id="icon-facebook" viewBox="0 0 32 32">
<path d="M19 6h5v-6h-5c-3.86 0-7 3.14-7 7v3h-4v6h4v16h6v-16h5l1-6h-6v-3c0-0.542 0.458-1 1-1z"></path>
</symbol>
<symbol id="icon-instagram" viewBox="0 0 32 32">
<path d="M16 2.881c4.275 0 4.781 0.019 6.462 0.094 1.563 0.069 2.406 0.331 2.969 0.55 0.744 0.288 1.281 0.638 1.837 1.194 0.563 0.563 0.906 1.094 1.2 1.838 0.219 0.563 0.481 1.412 0.55 2.969 0.075 1.688 0.094 2.194 0.094 6.463s-0.019 4.781-0.094 6.463c-0.069 1.563-0.331 2.406-0.55 2.969-0.288 0.744-0.637 1.281-1.194 1.837-0.563 0.563-1.094 0.906-1.837 1.2-0.563 0.219-1.413 0.481-2.969 0.55-1.688 0.075-2.194 0.094-6.463 0.094s-4.781-0.019-6.463-0.094c-1.563-0.069-2.406-0.331-2.969-0.55-0.744-0.288-1.281-0.637-1.838-1.194-0.563-0.563-0.906-1.094-1.2-1.837-0.219-0.563-0.481-1.413-0.55-2.969-0.075-1.688-0.094-2.194-0.094-6.463s0.019-4.781 0.094-6.463c0.069-1.563 0.331-2.406 0.55-2.969 0.288-0.744 0.638-1.281 1.194-1.838 0.563-0.563 1.094-0.906 1.838-1.2 0.563-0.219 1.412-0.481 2.969-0.55 1.681-0.075 2.188-0.094 6.463-0.094zM16 0c-4.344 0-4.887 0.019-6.594 0.094-1.7 0.075-2.869 0.35-3.881 0.744-1.056 0.412-1.95 0.956-2.837 1.85-0.894 0.888-1.438 1.781-1.85 2.831-0.394 1.019-0.669 2.181-0.744 3.881-0.075 1.713-0.094 2.256-0.094 6.6s0.019 4.887 0.094 6.594c0.075 1.7 0.35 2.869 0.744 3.881 0.413 1.056 0.956 1.95 1.85 2.837 0.887 0.887 1.781 1.438 2.831 1.844 1.019 0.394 2.181 0.669 3.881 0.744 1.706 0.075 2.25 0.094 6.594 0.094s4.888-0.019 6.594-0.094c1.7-0.075 2.869-0.35 3.881-0.744 1.050-0.406 1.944-0.956 2.831-1.844s1.438-1.781 1.844-2.831c0.394-1.019 0.669-2.181 0.744-3.881 0.075-1.706 0.094-2.25 0.094-6.594s-0.019-4.887-0.094-6.594c-0.075-1.7-0.35-2.869-0.744-3.881-0.394-1.063-0.938-1.956-1.831-2.844-0.887-0.887-1.781-1.438-2.831-1.844-1.019-0.394-2.181-0.669-3.881-0.744-1.712-0.081-2.256-0.1-6.6-0.1v0z"></path>
<path d="M16 7.781c-4.537 0-8.219 3.681-8.219 8.219s3.681 8.219 8.219 8.219 8.219-3.681 8.219-8.219c0-4.537-3.681-8.219-8.219-8.219zM16 21.331c-2.944 0-5.331-2.387-5.331-5.331s2.387-5.331 5.331-5.331c2.944 0 5.331 2.387 5.331 5.331s-2.387 5.331-5.331 5.331z"></path>
<path d="M26.462 7.456c0 1.060-0.859 1.919-1.919 1.919s-1.919-0.859-1.919-1.919c0-1.060 0.859-1.919 1.919-1.919s1.919 0.859 1.919 1.919z"></path>
</symbol>
<symbol id="icon-whatsapp" viewBox="0 0 32 32">
<path d="M27.281 4.65c-2.994-3-6.975-4.65-11.219-4.65-8.738 0-15.85 7.112-15.85 15.856 0 2.794 0.731 5.525 2.119 7.925l-2.25 8.219 8.406-2.206c2.319 1.262 4.925 1.931 7.575 1.931h0.006c0 0 0 0 0 0 8.738 0 15.856-7.113 15.856-15.856 0-4.238-1.65-8.219-4.644-11.219zM16.069 29.050v0c-2.369 0-4.688-0.637-6.713-1.837l-0.481-0.288-4.987 1.306 1.331-4.863-0.313-0.5c-1.325-2.094-2.019-4.519-2.019-7.012 0-7.269 5.912-13.181 13.188-13.181 3.519 0 6.831 1.375 9.319 3.862 2.488 2.494 3.856 5.8 3.856 9.325-0.006 7.275-5.919 13.188-13.181 13.188zM23.294 19.175c-0.394-0.2-2.344-1.156-2.706-1.288s-0.625-0.2-0.894 0.2c-0.262 0.394-1.025 1.288-1.256 1.556-0.231 0.262-0.462 0.3-0.856 0.1s-1.675-0.619-3.188-1.969c-1.175-1.050-1.975-2.35-2.206-2.744s-0.025-0.613 0.175-0.806c0.181-0.175 0.394-0.463 0.594-0.694s0.262-0.394 0.394-0.662c0.131-0.262 0.069-0.494-0.031-0.694s-0.894-2.15-1.219-2.944c-0.319-0.775-0.65-0.669-0.894-0.681-0.231-0.012-0.494-0.012-0.756-0.012s-0.694 0.1-1.056 0.494c-0.363 0.394-1.387 1.356-1.387 3.306s1.419 3.831 1.619 4.1c0.2 0.262 2.794 4.269 6.769 5.981 0.944 0.406 1.681 0.65 2.256 0.837 0.95 0.3 1.813 0.256 2.494 0.156 0.762-0.113 2.344-0.956 2.675-1.881s0.331-1.719 0.231-1.881c-0.094-0.175-0.356-0.275-0.756-0.475z"></path>
</symbol>
<symbol id="icon-twitter" viewBox="0 0 32 32">
<path d="M32 7.075c-1.175 0.525-2.444 0.875-3.769 1.031 1.356-0.813 2.394-2.1 2.887-3.631-1.269 0.75-2.675 1.3-4.169 1.594-1.2-1.275-2.906-2.069-4.794-2.069-3.625 0-6.563 2.938-6.563 6.563 0 0.512 0.056 1.012 0.169 1.494-5.456-0.275-10.294-2.888-13.531-6.862-0.563 0.969-0.887 2.1-0.887 3.3 0 2.275 1.156 4.287 2.919 5.463-1.075-0.031-2.087-0.331-2.975-0.819 0 0.025 0 0.056 0 0.081 0 3.181 2.263 5.838 5.269 6.437-0.55 0.15-1.131 0.231-1.731 0.231-0.425 0-0.831-0.044-1.237-0.119 0.838 2.606 3.263 4.506 6.131 4.563-2.25 1.762-5.075 2.813-8.156 2.813-0.531 0-1.050-0.031-1.569-0.094 2.913 1.869 6.362 2.95 10.069 2.95 12.075 0 18.681-10.006 18.681-18.681 0-0.287-0.006-0.569-0.019-0.85 1.281-0.919 2.394-2.075 3.275-3.394z"></path>
</symbol>
<symbol id="icon-linkedin" viewBox="0 0 32 32">
<path d="M29 0h-26c-1.65 0-3 1.35-3 3v26c0 1.65 1.35 3 3 3h26c1.65 0 3-1.35 3-3v-26c0-1.65-1.35-3-3-3zM12 26h-4v-14h4v14zM10 10c-1.106 0-2-0.894-2-2s0.894-2 2-2c1.106 0 2 0.894 2 2s-0.894 2-2 2zM26 26h-4v-8c0-1.106-0.894-2-2-2s-2 0.894-2 2v8h-4v-14h4v2.481c0.825-1.131 2.087-2.481 3.5-2.481 2.488 0 4.5 2.238 4.5 5v9z"></path>
</symbol>
</defs>
</svg>
